<svg width="1280" height="1280" viewBox="0 0 1280 1280" fill="none" xmlns="http://www.w3.org/2000/svg">
<g clip-path="url(#clip0_346_11)">
<path d="M561.212 160.278C562.37 160.203 563.529 160.154 564.688 160.13C629.195 158.54 688.27 184.658 734.651 228.545C771.813 214.537 818.37 213.168 856.995 220.836C918.888 233.376 973.288 269.931 1008.29 322.496C1036.75 365.447 1050.39 416.523 1047.15 467.946C1046.04 484.638 1043.45 497.74 1040.18 514.123C1122.39 591.268 1144.49 705.5 1090.54 805.819C1066.52 850.257 1028.94 885.875 983.282 907.488C970.582 913.35 958.201 917.238 944.863 921.225C923.426 1021.13 844.401 1095.66 742.695 1109.3C734.513 1110.4 726.888 1111.23 718.595 1111.3C650.395 1112.27 594.852 1089.28 545.392 1043.04C506.082 1056.18 464.022 1058.81 423.379 1050.69C361.272 1038.24 306.648 1001.64 271.507 948.938C243.083 905.832 229.504 854.631 232.832 803.106C233.916 786.769 236.583 773.475 239.814 757.457C205.947 725.45 182.778 690.669 169.52 645.588C151.987 585.28 159.147 520.477 189.422 465.452C222.171 405.742 270.588 369.106 335.231 350.181C344.04 306.546 365.052 266.306 395.823 234.14C438.954 188.528 498.46 161.953 561.212 160.278Z" fill="#242424"/>
<path d="M808.031 603.41C818.956 609.023 889.237 649.238 893.231 654.456C895.587 657.531 896.1 663.2 896.312 667.044C897.062 680.288 896.419 693.869 896.4 707.15L896.362 784.569L896.387 849.231C896.387 864.069 896.812 880.413 895.325 895C890.912 941.919 867.6 985.019 830.744 1014.38C793.737 1044.28 741.369 1058.34 694.225 1053.43C658.944 1050.04 631.625 1037.62 603.34 1017.23C645.794 993.269 688.706 967.844 730.956 943.394L767.844 922.063C809.981 897.75 808.025 901.213 807.987 852.275L807.944 797.275L808.031 603.41Z" fill="#f0f0f0"/>
<path d="M564.136 217.162C603.706 215.252 645.274 230.399 676.543 254.259C662.306 263.227 643.699 273.292 628.712 281.956L534.034 336.688C516.312 346.938 496.075 357.379 480.174 369.891C469.944 377.94 472.016 403.053 472.021 415.216L472.066 466.143L472.048 641.563L472.023 667.956L418.516 636.819C411.374 632.656 404.157 628.481 397.039 624.239C387.381 618.479 384.643 614.511 384.482 603.081C384.304 590.425 384.424 577.768 384.434 565.118L384.478 492.276L384.452 429.122C384.434 400.992 383.121 378.16 389.951 350.411C396.979 321.741 411.268 295.361 431.444 273.814C466.924 236.117 513.241 218.578 564.136 217.162Z" fill="#f0f0f0"/>
<path d="M750.813 765.568L751.288 765.712C751.369 765.887 751.45 766.062 751.531 766.237C752.1 795.581 751.75 825.15 751.75 854.55C751.757 863.806 748.663 868.75 740.863 873.468C729.813 880.15 718.519 886.468 707.313 892.9L642.888 929.912L585.285 963.056C570.836 971.356 553.197 982.237 537.962 987.743C492.378 1004.21 435.812 1000.89 392.143 980.118C347.131 958.706 316.083 923.425 299.182 876.975C290.021 848.512 287.254 824.487 291.316 794.831C307.075 803.437 323.904 813.593 339.543 822.631L432.866 876.55C448.597 885.631 464.327 894.631 480.111 903.612C500.6 915.275 520.448 898.743 538.325 888.356L587.056 860.181L750.813 765.568Z" fill="#f0f0f0"/>
<path d="M328.083 413.128C328.702 415.952 328.438 448.375 328.438 453.867L328.397 574.297C328.375 593.51 328.212 612.667 328.6 631.875C329.057 654.519 349.566 661.875 366.523 671.725L417.99 701.531L583.454 797.512C566.071 807.194 548.886 817.587 531.466 827.337C521.965 832.656 509.105 841.162 498.898 844.462C492.509 846.531 484.437 841.212 479.05 838.031C443.617 818.75 405.517 795.644 370.27 775.344L326.513 750.169C309.514 740.387 294.918 732.781 280 719.594C260.372 701.962 244.7 680.369 234.015 656.244C190.841 560.077 232.11 456.134 328.083 413.128Z" fill="#f0f0f0"/>
<path d="M780.181 426.995C786.956 426.252 790.743 427.655 796.606 430.947C809.393 438.13 822.062 445.563 834.762 452.91L905.543 493.738L954.612 522.01C967.181 529.25 981.093 536.812 992.425 545.66C1009.59 559.27 1024.11 575.905 1035.29 594.745C1061.21 637.331 1069.11 688.487 1057.22 736.906C1044.85 785.881 1015.34 823.031 972.412 848.7C965.862 852.487 959.45 855.418 952.525 858.387L952.562 703.331V664.95C952.556 619.855 952.656 622.94 913.737 600.363L866.662 572.986L696.662 473.982L749.868 443.345C756.943 439.28 773.262 429.373 780.181 426.995Z" fill="#f0f0f0"/>
<path d="M796.669 273.401C805.231 273.11 813.806 273.328 822.338 274.052C928.8 283.042 998.8 372.55 989.7 477.719C974.1 469.359 955.338 457.687 939.675 448.52L841.406 391.01C775.525 352.44 790.613 353.532 725.144 391.824L528.208 506.211L528.128 446.242C528.119 435.917 527.933 425.615 528.326 415.284C528.713 405.104 532.351 401.987 540.653 397.101C554.233 389.11 567.928 381.34 581.576 373.489L660.844 327.915L704.944 302.561C714.188 297.231 725.269 290.384 734.944 286.294C755.269 277.705 774.944 274.752 796.669 273.401Z" fill="#f0f0f0"/>
<path d="M640 506.207C676.219 527.486 715.056 548.264 751.813 569.06V702.219C715.775 723.306 676.713 744.588 640.113 764.975C627.944 758.95 612.486 749.681 600.441 742.906L528.191 702.256L528.201 569.04C538.879 562.515 552.713 555.255 563.803 549.041L640 506.207Z" fill="#f0f0f0"/>
</g>
<defs>
<clipPath id="clip0_346_11">
<rect width="1280" height="1280" fill="white"/>
</clipPath>
</defs>
</svg>
